<svg width="14" height="14" viewBox="0 0 14 14" fill="none" xmlns="http://www.w3.org/2000/svg">
<g id="icon/heart">
<path id="Vector" d="M6.79292 12.1975L6.78883 12.1957L6.776 12.1887C6.70092 12.1474 6.62644 12.105 6.55258 12.0616C5.66464 11.5339 4.83483 10.9141 4.07692 10.2124C2.73467 8.96 1.3125 7.1015 1.3125 4.8125C1.3125 3.1045 2.74983 1.75 4.48467 1.75C4.96694 1.74763 5.44354 1.85403 5.87902 2.06127C6.3145 2.2685 6.69766 2.57125 7 2.947C7.3024 2.57117 7.68565 2.26838 8.12124 2.06114C8.55683 1.8539 9.03355 1.74755 9.51592 1.75C11.2502 1.75 12.6875 3.1045 12.6875 4.8125C12.6875 7.10208 11.2653 8.96058 9.92308 10.2118C9.16519 10.9136 8.33537 11.5334 7.44742 12.061C7.37356 12.1047 7.29908 12.1472 7.224 12.1887L7.21117 12.1957L7.20708 12.1981L7.20533 12.1987C7.14208 12.2322 7.07158 12.2497 7 12.2497C6.92842 12.2497 6.85792 12.2322 6.79467 12.1987L6.79292 12.1975Z" fill="url(#paint0_linear_205_1669)"/>
</g>
<defs>
<linearGradient id="paint0_linear_205_1669" x1="7" y1="1.74995" x2="7" y2="12.2497" gradientUnits="userSpaceOnUse">
<stop stop-color="#E47CB4"/>
<stop offset="1" stop-color="#CF3A8B"/>
</linearGradient>
</defs>
</svg>
