<svg width="16" height="16" viewBox="0 0 16 16" fill="none" xmlns="http://www.w3.org/2000/svg">
<path fill-rule="evenodd" clip-rule="evenodd" d="M8.00002 3.5C8.80869 3.5 9.61002 3.53067 10.4034 3.59C10.923 3.62798 11.4116 3.85159 11.78 4.22C12.1484 4.58841 12.372 5.07704 12.41 5.59667C12.4394 5.98534 12.4614 6.37667 12.4767 6.76934L11.3534 5.64667C11.3076 5.59755 11.2524 5.55814 11.191 5.53082C11.1297 5.50349 11.0635 5.48879 10.9964 5.48761C10.9292 5.48642 10.8625 5.49877 10.8003 5.52392C10.738 5.54907 10.6815 5.5865 10.634 5.63398C10.5865 5.68146 10.5491 5.73801 10.5239 5.80027C10.4988 5.86253 10.4864 5.92922 10.4876 5.99635C10.4888 6.06349 10.5035 6.1297 10.5308 6.19103C10.5582 6.25236 10.5976 6.30756 10.6467 6.35334L12.6467 8.35334C12.7404 8.44697 12.8675 8.49956 13 8.49956C13.1325 8.49956 13.2596 8.44697 13.3534 8.35334L15.3534 6.35334C15.4417 6.25855 15.4898 6.13319 15.4875 6.00365C15.4852 5.87412 15.4327 5.75053 15.3411 5.65892C15.2495 5.56731 15.1259 5.51484 14.9964 5.51255C14.8668 5.51027 14.7415 5.55835 14.6467 5.64667L13.4787 6.814C13.4634 6.38067 13.4387 5.95 13.4067 5.52134C13.3506 4.76337 13.0241 4.05078 12.4867 3.51336C11.9492 2.97593 11.2366 2.64943 10.4787 2.59334C8.82859 2.46885 7.17145 2.46885 5.52135 2.59334C4.76339 2.64943 4.0508 2.97593 3.51337 3.51336C2.97595 4.05078 2.64945 4.76337 2.59335 5.52134C2.58202 5.67067 2.57135 5.81934 2.56269 5.96934C2.55761 6.03545 2.56573 6.10191 2.58658 6.16485C2.60742 6.22779 2.64058 6.28596 2.68412 6.33597C2.72766 6.38597 2.78071 6.42682 2.84018 6.45613C2.89966 6.48544 2.96437 6.50263 3.03055 6.5067C3.09673 6.51077 3.16306 6.50163 3.22567 6.47982C3.28829 6.45801 3.34594 6.42397 3.39528 6.37967C3.44461 6.33537 3.48464 6.2817 3.51304 6.22179C3.54144 6.16187 3.55763 6.0969 3.56069 6.03067C3.56935 5.886 3.57935 5.74134 3.59002 5.59667C3.628 5.07704 3.85161 4.58841 4.22002 4.22C4.58843 3.85159 5.07706 3.62798 5.59669 3.59C6.39002 3.53 7.19135 3.5 8.00002 3.5ZM3.35335 7.64667C3.2596 7.55304 3.13252 7.50044 3.00002 7.50044C2.86752 7.50044 2.74044 7.55304 2.64669 7.64667L0.646688 9.64667C0.597563 9.69244 0.558162 9.74764 0.530834 9.80898C0.503506 9.87031 0.488811 9.93652 0.487627 10.0037C0.486442 10.0708 0.498792 10.1375 0.523939 10.1997C0.549087 10.262 0.586516 10.3185 0.633995 10.366C0.681475 10.4135 0.738031 10.4509 0.800289 10.4761C0.862548 10.5012 0.929234 10.5136 0.996369 10.5124C1.0635 10.5112 1.12971 10.4965 1.19105 10.4692C1.25238 10.4419 1.30758 10.4025 1.35335 10.3533L2.52135 9.186C2.53669 9.61934 2.56135 10.05 2.59335 10.4787C2.64945 11.2366 2.97595 11.9492 3.51337 12.4867C4.0508 13.0241 4.76339 13.3506 5.52135 13.4067C7.17145 13.5312 8.82859 13.5312 10.4787 13.4067C11.2366 13.3506 11.9492 13.0241 12.4867 12.4867C13.0241 11.9492 13.3506 11.2366 13.4067 10.4787C13.418 10.33 13.428 10.1807 13.4374 10.0307C13.4434 9.89953 13.3976 9.77127 13.3099 9.67358C13.2222 9.5759 13.0996 9.51664 12.9686 9.50858C12.8375 9.50053 12.7086 9.54434 12.6096 9.63054C12.5105 9.71675 12.4494 9.83844 12.4394 9.96934C12.4307 10.114 12.4207 10.2587 12.41 10.4033C12.372 10.923 12.1484 11.4116 11.78 11.78C11.4116 12.1484 10.923 12.372 10.4034 12.41C8.8034 12.5306 7.19664 12.5306 5.59669 12.41C5.07706 12.372 4.58843 12.1484 4.22002 11.78C3.85161 11.4116 3.628 10.923 3.59002 10.4033C3.56059 10.0129 3.53836 9.62194 3.52335 9.23067L4.64669 10.3533C4.74147 10.4417 4.86684 10.4897 4.99637 10.4875C5.1259 10.4852 5.24949 10.4327 5.3411 10.3411C5.43271 10.2495 5.48519 10.1259 5.48747 9.99635C5.48976 9.86682 5.44167 9.74145 5.35335 9.64667L3.35335 7.64667Z" fill="url(#paint0_linear_88_907)"/>
<defs>
<linearGradient id="paint0_linear_88_907" x1="7.98755" y1="2.49997" x2="7.98755" y2="13.5001" gradientUnits="userSpaceOnUse">
<stop stop-color="#E47CB4"/>
<stop offset="1" stop-color="#CF3A8B"/>
</linearGradient>
</defs>
</svg>
