<svg width="120" height="120" viewBox="0 0 120 120" fill="none" xmlns="http://www.w3.org/2000/svg">
<rect x="76.5564" y="-21.2669" width="23.75" height="23.75" transform="rotate(45 76.5564 -21.2669)" fill="#0E0E17" stroke="#1F202B" stroke-width="0.25"/>
<rect x="92.1127" y="-5.71052" width="23.75" height="23.75" transform="rotate(45 92.1127 -5.71052)" fill="#0E0E17" stroke="#1F202B" stroke-width="0.25"/>
<rect x="107.669" y="9.84581" width="23.75" height="23.75" transform="rotate(45 107.669 9.84581)" fill="#0E0E17" stroke="#1F202B" stroke-width="0.25"/>
<rect x="123.225" y="25.4022" width="23.75" height="23.75" transform="rotate(45 123.225 25.4022)" fill="#0E0E17" stroke="#1F202B" stroke-width="0.25"/>
<rect x="44.7366" y="-20.5598" width="23.75" height="23.75" transform="rotate(45 44.7366 -20.5598)" fill="#0E0E17" stroke="#1F202B" stroke-width="0.25"/>
<rect x="60.293" y="-5.00343" width="23.75" height="23.75" transform="rotate(45 60.293 -5.00343)" fill="#0E0E17" stroke="#1F202B" stroke-width="0.25"/>
<rect x="75.8492" y="10.5529" width="23.75" height="23.75" transform="rotate(45 75.8492 10.5529)" fill="#0E0E17" stroke="#1F202B" stroke-width="0.25"/>
<rect x="91.4056" y="26.1093" width="23.75" height="23.75" transform="rotate(45 91.4056 26.1093)" fill="#0E0E17" stroke="#1F202B" stroke-width="0.25"/>
<rect x="106.962" y="41.6656" width="23.75" height="23.75" transform="rotate(45 106.962 41.6656)" fill="#0E0E17" stroke="#1F202B" stroke-width="0.25"/>
<rect x="122.518" y="57.222" width="23.75" height="23.75" transform="rotate(45 122.518 57.222)" fill="#0E0E17" stroke="#1F202B" stroke-width="0.25"/>
<rect x="28.4731" y="-4.29631" width="23.75" height="23.75" transform="rotate(45 28.4731 -4.29631)" fill="#0E0E17" stroke="#1F202B" stroke-width="0.25"/>
<rect x="44.0295" y="11.26" width="23.75" height="23.75" transform="rotate(45 44.0295 11.26)" fill="#0E0E17" stroke="#1F202B" stroke-width="0.25"/>
<rect x="59.5858" y="26.8164" width="23.75" height="23.75" transform="rotate(45 59.5858 26.8164)" fill="#0E0E17" stroke="#1F202B" stroke-width="0.25"/>
<rect x="75.1422" y="42.3727" width="23.75" height="23.75" transform="rotate(45 75.1422 42.3727)" fill="#0E0E17" stroke="#1F202B" stroke-width="0.25"/>
<rect x="90.6985" y="57.9291" width="23.75" height="23.75" transform="rotate(45 90.6985 57.9291)" fill="#0E0E17" stroke="#1F202B" stroke-width="0.25"/>
<rect x="106.255" y="73.4854" width="23.75" height="23.75" transform="rotate(45 106.255 73.4854)" fill="#0E0E17" stroke="#1F202B" stroke-width="0.25"/>
<rect x="12.2096" y="11.9672" width="23.75" height="23.75" transform="rotate(45 12.2096 11.9672)" fill="#0E0E17" stroke="#1F202B" stroke-width="0.25"/>
<rect x="27.766" y="27.5235" width="23.75" height="23.75" transform="rotate(45 27.766 27.5235)" fill="#0E0E17" stroke="#1F202B" stroke-width="0.25"/>
<rect x="43.3223" y="43.0799" width="23.75" height="23.75" transform="rotate(45 43.3223 43.0799)" fill="#0E0E17" stroke="#1F202B" stroke-width="0.25"/>
<rect x="58.8787" y="58.6362" width="23.75" height="23.75" transform="rotate(45 58.8787 58.6362)" fill="#0E0E17" stroke="#1F202B" stroke-width="0.25"/>
<rect x="74.4349" y="74.1926" width="23.75" height="23.75" transform="rotate(45 74.4349 74.1926)" fill="#0E0E17" stroke="#1F202B" stroke-width="0.25"/>
<rect x="89.9913" y="89.7489" width="23.75" height="23.75" transform="rotate(45 89.9913 89.7489)" fill="#0E0E17" stroke="#1F202B" stroke-width="0.25"/>
<rect x="-4.05383" y="28.2306" width="23.75" height="23.75" transform="rotate(45 -4.05383 28.2306)" fill="#0E0E17" stroke="#1F202B" stroke-width="0.25"/>
<rect x="11.5026" y="43.7869" width="23.75" height="23.75" transform="rotate(45 11.5026 43.7869)" fill="#0E0E17" stroke="#1F202B" stroke-width="0.25"/>
<rect x="27.0588" y="59.3433" width="23.75" height="23.75" transform="rotate(45 27.0588 59.3433)" fill="#0E0E17" stroke="#1F202B" stroke-width="0.25"/>
<rect x="42.6152" y="74.8996" width="23.75" height="23.75" transform="rotate(45 42.6152 74.8996)" fill="#0E0E17" stroke="#1F202B" stroke-width="0.25"/>
<rect x="58.1715" y="90.456" width="23.75" height="23.75" transform="rotate(45 58.1715 90.456)" fill="#0E0E17" stroke="#1F202B" stroke-width="0.25"/>
<rect x="73.7279" y="106.012" width="23.75" height="23.75" transform="rotate(45 73.7279 106.012)" fill="#0E0E17" stroke="#1F202B" stroke-width="0.25"/>
<rect x="-4.76086" y="60.0504" width="23.75" height="23.75" transform="rotate(45 -4.76086 60.0504)" fill="#0E0E17" stroke="#1F202B" stroke-width="0.25"/>
<rect x="10.7954" y="75.6068" width="23.75" height="23.75" transform="rotate(45 10.7954 75.6068)" fill="#0E0E17" stroke="#1F202B" stroke-width="0.25"/>
<rect x="26.3518" y="91.1631" width="23.75" height="23.75" transform="rotate(45 26.3518 91.1631)" fill="#0E0E17" stroke="#1F202B" stroke-width="0.25"/>
<rect x="41.9081" y="106.719" width="23.75" height="23.75" transform="rotate(45 41.9081 106.719)" fill="#0E0E17" stroke="#1F202B" stroke-width="0.25"/>
</svg>
