<svg width="100" height="100" viewBox="0 0 100 100" fill="none" xmlns="http://www.w3.org/2000/svg">
<g filter="url(#filter0_bf_53_907)">
<circle cx="50" cy="50" r="33" fill="url(#paint0_radial_53_907)" fill-opacity="0.02"/>
</g>
<path d="M74 52C72.9802 64.3191 62.6244 74 50 74C37.3756 74 27.0198 64.3191 26 52H40.1663C41.096 56.5645 45.1455 60 50 60C54.8545 60 58.904 56.5645 59.8337 52H74Z" fill="#35374A"/>
<path d="M74 48H59.8337C58.904 43.4355 54.8545 40 50 40C45.1455 40 41.096 43.4355 40.1663 48H26C27.0198 35.6809 37.3756 26 50 26C62.6244 26 72.9802 35.6809 74 48Z" fill="#35374A"/>
<defs>
<filter id="filter0_bf_53_907" x="-31" y="-31" width="162" height="162" filterUnits="userSpaceOnUse" color-interpolation-filters="sRGB">
<feFlood flood-opacity="0" result="BackgroundImageFix"/>
<feGaussianBlur in="BackgroundImageFix" stdDeviation="24"/>
<feComposite in2="SourceAlpha" operator="in" result="effect1_backgroundBlur_53_907"/>
<feBlend mode="normal" in="SourceGraphic" in2="effect1_backgroundBlur_53_907" result="shape"/>
<feGaussianBlur stdDeviation="8.5" result="effect2_foregroundBlur_53_907"/>
</filter>
<radialGradient id="paint0_radial_53_907" cx="0" cy="0" r="1" gradientUnits="userSpaceOnUse" gradientTransform="translate(50 22.3036) rotate(90) scale(60.6964)">
<stop stop-color="#313131"/>
<stop offset="1" stop-color="#390000"/>
</radialGradient>
</defs>
</svg>
